<svg width="55" height="47" viewBox="0 0 55 47" fill="none" xmlns="http://www.w3.org/2000/svg">
<path d="M54.999 32.0341C54.999 40.2995 48.2985 47 40.0331 47L17.1562 47C14.8603 47 12.999 45.1388 12.999 42.8428L12.999 15.3144C12.999 10.7225 16.7215 7 21.3134 7L50.8418 7C53.1378 7 54.999 8.86125 54.999 11.1572L54.999 32.0341Z" fill="url(#paint0_linear_954_16449)"/>
<path d="M23.4299 15.8425C23.1699 15.8425 22.9585 15.6315 22.9585 15.3711V14.57C22.9585 14.31 23.1695 14.0986 23.4299 14.0986C23.6899 14.0986 23.9013 14.3097 23.9013 14.57V15.3711C23.9013 15.6315 23.6899 15.8425 23.4299 15.8425Z" fill="#103E13"/>
<path d="M21.4458 15.8425C21.1857 15.8425 20.9744 15.6315 20.9744 15.3711V14.57C20.9744 14.31 21.1854 14.0986 21.4458 14.0986C21.7058 14.0986 21.9172 14.3097 21.9172 14.57V15.3711C21.9168 15.6315 21.7061 15.8425 21.4458 15.8425Z" fill="#103E13"/>
<path d="M19.4641 15.8425C19.2041 15.8425 18.9927 15.6315 18.9927 15.3711V14.57C18.9927 14.31 19.2037 14.0986 19.4641 14.0986C19.7241 14.0986 19.9355 14.3097 19.9355 14.57V15.3711C19.9355 15.6315 19.7244 15.8425 19.4641 15.8425Z" fill="#103E13"/>
<path d="M23.4299 19.1176C23.1699 19.1176 22.9585 18.9065 22.9585 18.6462V17.8454C22.9585 17.5854 23.1695 17.374 23.4299 17.374C23.6899 17.374 23.9013 17.5851 23.9013 17.8454V18.6462C23.9013 18.9065 23.6899 19.1176 23.4299 19.1176Z" fill="#103E13"/>
<path d="M21.4458 19.1176C21.1857 19.1176 20.9744 18.9065 20.9744 18.6462V17.8454C20.9744 17.5854 21.1854 17.374 21.4458 17.374C21.7058 17.374 21.9172 17.5851 21.9172 17.8454V18.6462C21.9168 18.9065 21.7061 19.1176 21.4458 19.1176Z" fill="#103E13"/>
<path d="M19.4641 19.1176C19.2041 19.1176 18.9927 18.9065 18.9927 18.6462V17.8454C18.9927 17.5854 19.2037 17.374 19.4641 17.374C19.7241 17.374 19.9355 17.5851 19.9355 17.8454V18.6462C19.9355 18.9065 19.7244 19.1176 19.4641 19.1176Z" fill="#103E13"/>
<path d="M23.4299 22.3943C23.1699 22.3943 22.9585 22.1832 22.9585 21.9229V21.1218C22.9585 20.8618 23.1695 20.6504 23.4299 20.6504C23.6899 20.6504 23.9013 20.8614 23.9013 21.1218V21.9229C23.9013 22.1832 23.6899 22.3943 23.4299 22.3943Z" fill="#103E13"/>
<path d="M21.4458 22.3943C21.1857 22.3943 20.9744 22.1832 20.9744 21.9229V21.1218C20.9744 20.8618 21.1854 20.6504 21.4458 20.6504C21.7058 20.6504 21.9172 20.8614 21.9172 21.1218V21.9229C21.9168 22.1832 21.7061 22.3943 21.4458 22.3943Z" fill="#103E13"/>
<path d="M19.4641 22.3943C19.2041 22.3943 18.9927 22.1832 18.9927 21.9229V21.1218C18.9927 20.8618 19.2037 20.6504 19.4641 20.6504C19.7241 20.6504 19.9355 20.8614 19.9355 21.1218V21.9229C19.9355 22.1832 19.7244 22.3943 19.4641 22.3943Z" fill="#103E13"/>
<path d="M23.4299 25.6706C23.1699 25.6706 22.9585 25.4596 22.9585 25.1993V24.3982C22.9585 24.1381 23.1695 23.9268 23.4299 23.9268C23.6899 23.9268 23.9013 24.1378 23.9013 24.3982V25.1993C23.9013 25.4596 23.6899 25.6706 23.4299 25.6706Z" fill="#103E13"/>
<path d="M21.4458 25.6706C21.1857 25.6706 20.9744 25.4596 20.9744 25.1993V24.3982C20.9744 24.1381 21.1854 23.9268 21.4458 23.9268C21.7058 23.9268 21.9172 24.1378 21.9172 24.3982V25.1993C21.9168 25.4596 21.7061 25.6706 21.4458 25.6706Z" fill="#103E13"/>
<path d="M19.4641 25.6706C19.2041 25.6706 18.9927 25.4596 18.9927 25.1993V24.3982C18.9927 24.1381 19.2037 23.9268 19.4641 23.9268C19.7241 23.9268 19.9355 24.1378 19.9355 24.3982V25.1993C19.9355 25.4596 19.7244 25.6706 19.4641 25.6706Z" fill="#103E13"/>
<path d="M23.4299 28.9457C23.1699 28.9457 22.9585 28.7347 22.9585 28.4743V27.6735C22.9585 27.4135 23.1695 27.2021 23.4299 27.2021C23.6899 27.2021 23.9013 27.4132 23.9013 27.6735V28.4743C23.9013 28.7343 23.6899 28.9457 23.4299 28.9457Z" fill="#103E13"/>
<path d="M21.4458 28.9457C21.1857 28.9457 20.9744 28.7347 20.9744 28.4743V27.6735C20.9744 27.4135 21.1854 27.2021 21.4458 27.2021C21.7058 27.2021 21.9172 27.4132 21.9172 27.6735V28.4743C21.9168 28.7343 21.7061 28.9457 21.4458 28.9457Z" fill="#103E13"/>
<path d="M19.4641 28.9457C19.2041 28.9457 18.9927 28.7347 18.9927 28.4743L18.993 27.6735C18.993 27.4135 19.204 27.2021 19.4644 27.2021C19.7244 27.2021 19.9358 27.4132 19.9358 27.6735V28.4743C19.9355 28.7343 19.7244 28.9457 19.4641 28.9457Z" fill="#103E13"/>
<path d="M5.99869 32.2059C5.99869 32.466 6.20973 32.6773 6.47008 32.6773H35.1765C35.4366 32.6773 35.6479 32.4663 35.6479 32.2059C35.6479 31.9459 35.4369 31.7346 35.1765 31.7346H34.3051V18.2001C34.3051 17.9401 34.0941 17.7287 33.8337 17.7287L26.1373 17.7291V7.97147C26.1373 7.80645 26.0512 7.65392 25.9105 7.56845C25.7701 7.48265 25.5946 7.4774 25.4486 7.55333L16.6983 12.1091C16.5422 12.1903 16.4449 12.3514 16.4449 12.5273V21.0504H7.97652C7.7165 21.0504 7.50513 21.2614 7.50513 21.5218V31.7346H6.46903C6.20901 31.7343 5.99829 31.9453 5.99829 32.2057L5.99869 32.2059ZM26.1375 24.8685H33.3628V31.7349L26.1375 31.7346V24.8685ZM26.1375 21.5928H33.3628V23.9261L26.1375 23.9258V21.5928ZM26.1375 18.6714H33.3628V20.6507H26.1375V18.6714ZM17.3872 12.8135L25.1944 8.74848V31.7342H17.3872V12.8135ZM10.7782 27.9696C10.7782 26.9913 11.5533 26.1951 12.5063 26.1951C13.4592 26.1951 14.2347 26.991 14.2347 27.9696V31.7348H10.7782V27.9696ZM8.44789 21.993H16.4448V31.7346H15.1775V27.9694C15.1775 26.4714 13.9796 25.2525 12.5063 25.2525C11.0336 25.2525 9.83575 26.4711 9.83575 27.9694V31.7346H8.44789V21.993Z" fill="#103E13"/>
<defs>
<linearGradient id="paint0_linear_954_16449" x1="33.999" y1="7" x2="33.999" y2="47" gradientUnits="userSpaceOnUse">
<stop stop-color="#D9E9FF"/>
<stop offset="1" stop-color="#A6C5FF"/>
</linearGradient>
</defs>
</svg>
