<svg width="55" height="47" viewBox="0 0 55 47" fill="none" xmlns="http://www.w3.org/2000/svg">
<path d="M54.2998 32.0341C54.2998 40.2995 47.5993 47 39.3339 47L17.457 47C15.161 47 13.2998 45.1388 13.2998 42.8428L13.2998 15.3144C13.2998 10.7225 17.0223 7 21.6142 7L50.1426 7C52.4386 7 54.2998 8.86125 54.2998 11.1572L54.2998 32.0341Z" fill="url(#paint0_linear_954_16474)"/>
<path d="M23.8919 19.7035C23.6912 19.7035 23.5049 19.6483 23.3394 19.5595V19.5619C23.3394 19.8776 23.2167 20.1741 22.9941 20.3961C22.7714 20.6188 22.4752 20.7415 22.1598 20.7415C21.9562 20.7415 21.7676 20.6849 21.6003 20.5938C21.5834 20.8826 21.4679 21.1526 21.262 21.3588C21.0394 21.5814 20.7431 21.7041 20.4276 21.7041C19.8007 21.7041 19.2916 21.2113 19.2549 20.5936C19.0609 20.6985 18.8416 20.7535 18.6154 20.7389C17.9987 20.6985 17.5157 20.1656 17.5157 19.5256V14.22L16.9116 15.2667C16.6815 15.667 16.2508 15.9155 15.787 15.9155C15.561 15.9155 15.3378 15.8562 15.1401 15.743C14.8939 15.6002 14.7178 15.3711 14.6446 15.097C14.571 14.8227 14.609 14.5359 14.7514 14.2901C14.7516 14.2901 16.728 10.8674 16.8486 10.6572C16.8629 10.6256 16.9038 10.5339 16.9385 10.4557C16.9717 10.3811 17.0002 10.3046 17.0275 10.2276C17.6235 8.54485 19.0994 7.49958 20.8793 7.49958C23.1907 7.49958 25.0712 9.53866 25.0712 12.0451L25.0714 18.5237C25.0714 18.839 24.9489 19.1353 24.7264 19.3581C24.5038 19.5808 24.2075 19.7035 23.8918 19.7035L23.8919 19.7035ZM20.8793 8.12636C19.3499 8.12636 18.1309 8.99025 17.6183 10.4372C17.5855 10.5291 17.5513 10.621 17.5115 10.7105C17.3958 10.9699 17.3958 10.9699 17.3632 11.0072L17.3589 11.0034C17.1975 11.3079 16.7181 12.1382 15.2941 14.6038C15.2356 14.7049 15.2201 14.8223 15.2499 14.9346C15.2801 15.0469 15.3526 15.1415 15.4529 15.1994C15.7643 15.3783 16.1907 15.2628 16.3682 14.9536L17.5578 12.8941C17.6289 12.7714 17.7726 12.7111 17.9104 12.7484C18.0474 12.7851 18.1427 12.9094 18.1427 13.0511V19.5258C18.1427 19.8312 18.3732 20.0949 18.6565 20.1136C18.8198 20.1222 18.9722 20.0674 19.0866 19.9532C19.1907 19.8491 19.248 19.7105 19.248 19.5623V15.3278C19.248 15.1546 19.3884 15.0142 19.5616 15.0142C19.7347 15.0142 19.8751 15.1544 19.8751 15.3278L19.8749 20.5248C19.8749 20.8295 20.1229 21.0774 20.4276 21.0774C20.5756 21.0774 20.7146 21.0201 20.8189 20.916C20.9229 20.8118 20.9803 20.6728 20.9803 20.5248V15.3278C20.9803 15.1546 21.1204 15.0142 21.2938 15.0142C21.467 15.0142 21.6073 15.1544 21.6073 15.3278L21.6071 19.5136V19.5622C21.6071 19.8668 21.8551 20.1147 22.16 20.1147C22.3079 20.1147 22.4465 20.0572 22.5513 19.9527C22.6554 19.8489 22.7127 19.7103 22.7127 19.562V15.3276C22.7127 15.1544 22.8529 15.014 23.0262 15.014C23.1994 15.014 23.3398 15.1542 23.3398 15.3276L23.3394 18.5238C23.3394 18.8287 23.5874 19.0767 23.8919 19.0767C24.0401 19.0767 24.1787 19.0192 24.2827 18.9153C24.3872 18.8109 24.4443 18.6719 24.4443 18.5238L24.4445 12.0452C24.4445 9.8846 22.8452 8.12643 20.8793 8.12643L20.8793 8.12636Z" fill="#103E13"/>
<path d="M11.5736 24.2067L16.1234 21.4773C16.6719 21.1478 17.3777 21.2878 17.7295 21.7961C17.8579 21.9812 17.9235 22.197 17.9337 22.4167C18.1034 22.3282 18.2879 22.2801 18.4758 22.2801C18.572 22.2801 18.6686 22.2921 18.764 22.3158C19.0697 22.3922 19.3273 22.5832 19.4893 22.8533C19.6514 23.1239 19.6988 23.4409 19.6224 23.7463C19.5519 24.0288 19.3801 24.2666 19.1412 24.4297C19.3082 24.5283 19.4524 24.6628 19.5548 24.834C19.717 25.1045 19.7643 25.4214 19.6881 25.7271C19.6118 26.0324 19.4207 26.29 19.1502 26.4524L19.1486 26.4534C19.3128 26.5517 19.4543 26.6848 19.5556 26.8535C19.718 27.124 19.7653 27.4411 19.6889 27.7468C19.6124 28.0523 19.4213 28.3098 19.1512 28.472L13.5959 31.8048C12.559 32.4266 11.3604 32.6412 10.2213 32.4085C9.07198 32.1737 8.12014 31.5131 7.54139 30.5483C6.62549 29.0218 6.76275 27.2183 7.89891 25.8418C7.95094 25.779 8.00218 25.715 8.04871 25.6486C8.09799 25.5785 8.15552 25.496 8.17515 25.4678C8.29275 25.2577 10.2117 21.8003 10.2115 21.8007C10.4053 21.451 10.7685 21.2531 11.1431 21.2533C11.3178 21.2533 11.4951 21.2963 11.6587 21.387C11.8562 21.4973 12.0221 21.6581 12.1381 21.8519C12.3767 22.2495 12.3851 22.747 12.1605 23.1496L11.5736 24.2067ZM11.6009 22.1742C11.54 22.0727 11.4564 21.9918 11.3541 21.9345C11.1426 21.8175 10.8764 21.8937 10.76 22.1043C9.38688 24.5781 8.9188 25.4211 8.73816 25.7212L8.74228 25.7221C8.72716 25.7724 8.72716 25.7724 8.56185 26.0086C8.5057 26.0885 8.44465 26.1653 8.38241 26.2408C7.40544 27.4245 7.292 28.9141 8.07868 30.2258C8.56598 31.0382 9.37134 31.5952 10.3465 31.7943C11.3323 31.9947 12.3713 31.8082 13.273 31.2671L18.8289 27.9342C18.9557 27.8583 19.0452 27.7375 19.081 27.5944C19.1167 27.4515 19.0945 27.3028 19.0183 27.176C18.8617 26.9149 18.5214 26.8291 18.2603 26.9864L15.5195 28.6306C15.3711 28.7198 15.1783 28.6719 15.0894 28.5232C15.0002 28.3748 15.0483 28.1822 15.1968 28.0931L17.9377 26.4488L18.8279 25.9148C18.9547 25.8386 19.0445 25.7179 19.0802 25.5751C19.1159 25.432 19.0937 25.2832 19.0176 25.1565C18.8607 24.8952 18.5204 24.8102 18.2595 24.9669L14.6284 27.1452C14.4796 27.2345 14.2873 27.1862 14.1982 27.0378C14.1091 26.8894 14.1574 26.6968 14.3056 26.6076L18.7621 23.9342C18.889 23.858 18.9785 23.7375 19.0142 23.5944C19.05 23.4514 19.0278 23.3028 18.9518 23.176C18.8758 23.0494 18.7551 22.9598 18.6119 22.9241C18.468 22.8884 18.32 22.9105 18.1936 22.9863L17.3686 23.4813C17.3684 23.4813 17.3684 23.4815 17.3682 23.4815H17.368L13.737 25.6598C13.5882 25.7493 13.3958 25.701 13.3069 25.5524C13.2177 25.404 13.266 25.2114 13.4143 25.1222L17.0454 22.9439C17.1722 22.8677 17.262 22.747 17.2977 22.6043C17.337 22.4476 17.3071 22.2874 17.2141 22.1531C17.0527 21.9197 16.7075 21.8576 16.4458 22.0149L10.894 25.3455C10.7725 25.4181 10.6168 25.4004 10.5149 25.3021C10.4128 25.2035 10.3898 25.0486 10.4585 24.9247L11.613 22.8448C11.7288 22.6369 11.7243 22.3801 11.6008 22.1743L11.6009 22.1742Z" fill="#103E13"/>
<path d="M33.3142 30.5484C32.7356 31.5134 31.784 32.1739 30.6345 32.4087C29.4952 32.6409 28.297 32.4267 27.2599 31.8049L21.7041 28.472C21.4337 28.3099 21.2425 28.0523 21.1659 27.7464C21.09 27.4411 21.1375 27.124 21.2994 26.8539C21.4006 26.685 21.5423 26.5519 21.7066 26.4535L21.7051 26.4525C21.4347 26.2904 21.2435 26.0328 21.1673 25.7273C21.0908 25.4218 21.1383 25.1045 21.3004 24.834C21.4049 24.6602 21.548 24.5244 21.7114 24.428C21.4742 24.2648 21.3034 24.0279 21.2331 23.7467C21.1565 23.441 21.204 23.1239 21.3662 22.8538C21.5282 22.5834 21.786 22.3924 22.0915 22.316C22.1869 22.2921 22.2837 22.2803 22.3795 22.2803C22.5676 22.2805 22.7521 22.3282 22.9218 22.4169C22.9322 22.1972 22.9975 21.9815 23.1259 21.7963C23.478 21.2884 24.1832 21.1479 24.7325 21.4775L29.2821 24.2065L28.6957 23.1502C28.4707 22.7469 28.479 22.2494 28.7175 21.8517C28.8337 21.6581 28.9998 21.4973 29.1983 21.386C29.3615 21.2957 29.5382 21.2529 29.7125 21.2529C30.0869 21.2531 30.4505 21.4506 30.6441 21.8003C31.3187 23.0158 32.5917 25.3081 32.6812 25.4681C32.7002 25.4958 32.7578 25.5783 32.807 25.6484C32.854 25.7149 32.9046 25.7785 32.957 25.8418C34.093 27.2188 34.23 29.0221 33.3142 30.5484L33.3142 30.5484ZM32.4733 26.2413C32.4109 26.1657 32.3496 26.0886 32.2939 26.0091C32.1243 25.7684 32.1199 25.7621 32.1072 25.6991C31.9089 25.371 31.4251 24.5001 30.0954 22.1044C29.9788 21.8941 29.7137 21.8174 29.5027 21.934C29.3988 21.9921 29.3154 22.0732 29.2545 22.1747C29.1312 22.3802 29.1265 22.637 29.2429 22.8456L30.397 24.9249C30.4659 25.049 30.4429 25.2037 30.341 25.3023C30.2393 25.401 30.0838 25.4183 29.9617 25.3456L24.4099 22.0151C24.1482 21.8582 23.8032 21.9196 23.6414 22.1533C23.5484 22.2876 23.5187 22.4478 23.5576 22.6043C23.5933 22.7472 23.683 22.8677 23.8101 22.9439C23.8105 22.9441 23.8107 22.9445 23.8111 22.9447L27.441 25.1224C27.5895 25.2115 27.6376 25.4039 27.5484 25.5526C27.4593 25.7008 27.2671 25.7493 27.1183 25.6599L22.6617 22.9865C22.5353 22.9107 22.3865 22.8884 22.2436 22.9243C22.1002 22.96 21.9797 23.0495 21.9037 23.1766C21.8275 23.3032 21.8055 23.4518 21.8409 23.5948C21.8766 23.7377 21.9663 23.8584 22.0932 23.9346L22.9604 24.4547L26.5495 26.6081C26.6979 26.6972 26.746 26.8896 26.6569 27.0382C26.5678 27.1865 26.3755 27.2348 26.2267 27.1456L22.596 24.9673C22.3349 24.8103 21.9948 24.8955 21.8377 25.157C21.7616 25.2838 21.7396 25.4324 21.7749 25.5754C21.8107 25.7183 21.9004 25.8388 22.0274 25.9152L22.9176 26.4492L25.6581 28.0935C25.8066 28.1827 25.8547 28.3751 25.7655 28.5237C25.6764 28.6719 25.4842 28.7206 25.3354 28.6311L22.5948 26.9868C22.4684 26.911 22.3201 26.8886 22.1764 26.9246C22.0335 26.9603 21.9126 27.0498 21.8366 27.1764C21.7606 27.3033 21.7384 27.4521 21.7737 27.5948C21.8095 27.7378 21.8992 27.8583 22.0262 27.9347L27.5821 31.2676C28.4836 31.8085 29.5234 31.9958 30.5086 31.7947C31.4836 31.5956 32.2889 31.0386 32.7762 30.2262C33.5637 28.9143 33.4504 27.4246 32.4737 26.2413L32.4733 26.2413Z" fill="#103E13"/>
<defs>
<linearGradient id="paint0_linear_954_16474" x1="33.7998" y1="7" x2="33.7998" y2="47" gradientUnits="userSpaceOnUse">
<stop stop-color="#D9E9FF"/>
<stop offset="1" stop-color="#A6C5FF"/>
</linearGradient>
</defs>
</svg>
