<svg width="55" height="47" viewBox="0 0 55 47" fill="none" xmlns="http://www.w3.org/2000/svg">
<path d="M54.6982 32.0341C54.6982 40.2995 47.9978 47 39.7323 47L17.8554 47C15.5595 47 13.6982 45.1388 13.6982 42.8428L13.6982 15.3144C13.6982 10.7225 17.4207 7 22.0127 7L50.541 7C52.837 7 54.6982 8.86125 54.6982 11.1572L54.6982 32.0341Z" fill="url(#paint0_linear_954_16440)"/>
<path d="M20.6896 8.33398C17.7136 8.33398 15.2908 10.7789 15.2908 13.7676C15.2908 15.6583 16.2617 17.3277 17.7278 18.3008C15.9571 18.8928 14.4249 19.9994 13.3011 21.4471C12.6798 20.9691 11.9856 20.5848 11.2372 20.3094C12.3721 19.4669 13.1137 18.1134 13.1137 16.5923C13.1137 14.0575 11.0637 11.9825 8.54422 11.9825C6.02479 11.9825 3.97473 14.0575 3.97473 16.5923C3.97473 18.1143 4.71698 19.4684 5.85282 20.3109C2.84567 21.4206 0.697998 24.3259 0.697998 27.745V30.1468C0.698306 30.3299 0.771545 30.5054 0.901405 30.6343C1.03126 30.7635 1.20698 30.8355 1.39008 30.8349H11.9275C11.9531 30.8377 11.9786 30.8392 12.0042 30.8389H29.3757C29.4013 30.8392 29.4271 30.8377 29.4523 30.8349H39.9906C40.3694 30.8334 40.6762 30.526 40.6771 30.1468V27.745C40.6771 24.3259 38.5332 21.4206 35.5276 20.3106C36.6634 19.4684 37.4057 18.114 37.4057 16.592C37.4057 14.0572 35.3556 11.9822 32.8362 11.9822C30.3168 11.9822 28.2667 14.0572 28.2667 16.592C28.2667 18.1131 29.0086 19.4668 30.1435 20.3091C29.3936 20.5851 28.699 20.9707 28.0768 21.4498C26.9536 20.0013 25.4236 18.8932 23.6529 18.3008C25.1186 17.3277 26.0899 15.6583 26.0899 13.7676C26.0899 10.7789 23.6659 8.33398 20.6898 8.33398H20.6896ZM20.6896 9.71262C22.9155 9.71262 24.7098 11.519 24.7098 13.7676C24.7098 15.9986 22.9434 17.7875 20.7423 17.8161C20.7247 17.8161 20.7075 17.8137 20.6896 17.8137C20.6718 17.8137 20.6549 17.8161 20.637 17.8161C18.4359 17.7878 16.6707 15.9987 16.6707 13.7676C16.6707 11.5187 18.4635 9.71262 20.6893 9.71262H20.6896ZM8.5443 13.361C10.3104 13.361 11.7352 14.7944 11.7352 16.5922C11.7352 18.378 10.3288 19.8052 8.57936 19.8246C8.56766 19.8246 8.55628 19.8234 8.54428 19.8234C8.53258 19.8234 8.5212 19.8246 8.5092 19.8246C6.75975 19.8052 5.35339 18.3777 5.35339 16.5922C5.35339 14.7945 6.77819 13.361 8.54425 13.361H8.5443ZM32.8358 13.361C34.6018 13.361 36.0266 14.7944 36.0266 16.5922C36.0266 18.378 34.6203 19.8052 32.8708 19.8246C32.8591 19.8246 32.8478 19.8234 32.8358 19.8234C32.8241 19.8234 32.8127 19.8246 32.8007 19.8246C31.0512 19.8052 29.6449 18.3777 29.6449 16.5922C29.6449 14.7945 31.0697 13.361 32.8357 13.361H32.8358ZM20.6369 19.1947C20.6544 19.195 20.6716 19.1971 20.6895 19.1971C20.707 19.1971 20.7243 19.1947 20.7421 19.1947C25.1565 19.223 28.6893 22.7862 28.6893 27.2467L28.689 29.4599H12.6906V27.2467C12.6906 22.7858 16.2224 19.223 20.6362 19.1947H20.6369ZM8.49152 21.2048C8.50906 21.2051 8.52629 21.2073 8.54414 21.2073C8.56199 21.2073 8.57891 21.2048 8.59676 21.2048C10.0899 21.2168 11.4525 21.7316 12.5375 22.593C11.7611 23.9667 11.3121 25.5524 11.3121 27.2471V29.455H2.07607V27.745C2.07607 24.1199 4.92629 21.2331 8.49136 21.2045L8.49152 21.2048ZM32.783 21.2048C32.8008 21.2051 32.8178 21.2073 32.8356 21.2073C32.8535 21.2073 32.8704 21.2048 32.8882 21.2048C36.4533 21.2331 39.3035 24.1203 39.3035 27.7453V29.455H30.0628L30.0625 27.2471C30.0625 25.5533 29.6147 23.9688 28.8398 22.5954C29.9251 21.7329 31.2887 21.2168 32.7831 21.2048H32.783Z" fill="#103E13"/>
<defs>
<linearGradient id="paint0_linear_954_16440" x1="34.1982" y1="7" x2="34.1982" y2="47" gradientUnits="userSpaceOnUse">
<stop stop-color="#D9E9FF"/>
<stop offset="1" stop-color="#A6C5FF"/>
</linearGradient>
</defs>
</svg>
